STARTFONT 2.1
FONT -FontForge-Nasalization-Book-R-Normal--20-190-75-75-P-132-ISO10646-1
SIZE 19 75 75
FONTBOUNDINGBOX 21 19 -1 -4
COMMENT "Generated by fontforge, http://fontforge.sourceforge.net"
COMMENT "(c) 1999-2024 Typodermic Fonts Inc."
STARTPROPERTIES 39
FOUNDRY "FontForge"
FAMILY_NAME "Nasalization"
WEIGHT_NAME "Book"
SLANT "R"
SETWIDTH_NAME "Normal"
ADD_STYLE_NAME ""
PIXEL_SIZE 20
POINT_SIZE 190
RESOLUTION_X 75
RESOLUTION_Y 75
SPACING "P"
AVERAGE_WIDTH 132
CHARSET_REGISTRY "ISO10646"
CHARSET_ENCODING "1"
FONTNAME_REGISTRY ""
CHARSET_COLLECTIONS "ISO10646-1"
FONT_NAME "Nasalization-Regular"
FACE_NAME "Nasalization Regular"
COPYRIGHT "(c) 1999-2024 Typodermic Fonts Inc."
FONT_VERSION "5.100"
FONT_ASCENT 16
FONT_DESCENT 4
UNDERLINE_POSITION -2
UNDERLINE_THICKNESS 1
X_HEIGHT 10
CAP_HEIGHT 13
RAW_ASCENT 800
RAW_DESCENT 200
NORM_SPACE 5
RELATIVE_WEIGHT 40
RELATIVE_SETWIDTH 50
SUPERSCRIPT_X 0
SUPERSCRIPT_Y 6
SUPERSCRIPT_SIZE 6
SUBSCRIPT_X 0
SUBSCRIPT_Y 0
SUBSCRIPT_SIZE 6
AVG_LOWERCASE_WIDTH 123
AVG_UPPERCASE_WIDTH 146
ENDPROPERTIES
CHARS 66
STARTCHAR space
ENCODING 32
SWIDTH 267 0
DWIDTH 5 0
BBX 1 1 0 0
BITMAP
00
ENDCHAR
STARTCHAR dollar
ENCODING 36
SWIDTH 620 0
DWIDTH 12 0
BBX 10 16 1 -1
BITMAP
0400
0400
0400
3FC0
7FC0
E000
C000
6000
7F80
00C0
00C0
01C0
FFC0
FF00
0400
0400
ENDCHAR
STARTCHAR zero
ENCODING 48
SWIDTH 748 0
DWIDTH 15 0
BBX 12 14 1 0
BITMAP
0F00
3FC0
7FE0
7070
E030
E030
C030
C030
E030
E030
6070
70E0
3FE0
1F80
ENDCHAR
STARTCHAR one
ENCODING 49
SWIDTH 337 0
DWIDTH 7 0
BBX 4 14 1 0
BITMAP
80
F0
F0
30
30
30
30
30
30
30
30
30
30
30
ENDCHAR
STARTCHAR two
ENCODING 50
SWIDTH 734 0
DWIDTH 15 0
BBX 13 14 1 0
BITMAP
7F80
7FF0
7FF0
0038
0038
0030
07F0
3FE0
7E00
E000
E000
E000
FFF0
FFF0
ENDCHAR
STARTCHAR three
ENCODING 51
SWIDTH 681 0
DWIDTH 14 0
BBX 11 14 1 0
BITMAP
FE00
FFC0
FFE0
0060
0060
0060
1FE0
1FC0
00E0
0060
0060
00E0
FFE0
FFC0
ENDCHAR
STARTCHAR four
ENCODING 52
SWIDTH 704 0
DWIDTH 14 0
BBX 11 14 1 0
BITMAP
0080
07E0
0FE0
1C60
3860
7060
7060
E060
C060
FFE0
FFE0
0060
0060
0060
ENDCHAR
STARTCHAR five
ENCODING 53
SWIDTH 685 0
DWIDTH 14 0
BBX 11 14 2 0
BITMAP
7FC0
FFC0
FFC0
C000
C000
C000
FF80
FFC0
00E0
00E0
00E0
01C0
FFC0
FF80
ENDCHAR
STARTCHAR six
ENCODING 54
SWIDTH 713 0
DWIDTH 14 0
BBX 12 14 1 0
BITMAP
03E0
1FE0
7FE0
7000
E000
E000
FFE0
FFF0
E030
E030
6030
7870
3FE0
1FC0
ENDCHAR
STARTCHAR seven
ENCODING 55
SWIDTH 651 0
DWIDTH 13 0
BBX 11 14 1 0
BITMAP
FF00
FFE0
FFE0
0060
00E0
00E0
01C0
0380
0700
0700
0E00
1C00
1800
3800
ENDCHAR
STARTCHAR eight
ENCODING 56
SWIDTH 726 0
DWIDTH 15 0
BBX 12 14 1 0
BITMAP
0700
7FE0
FFF0
E030
E030
E030
7FF0
3FE0
6070
C030
E030
E070
7FF0
3FE0
ENDCHAR
STARTCHAR nine
ENCODING 57
SWIDTH 713 0
DWIDTH 14 0
BBX 12 14 1 0
BITMAP
0600
7FC0
7FE0
E070
C070
C030
F030
7FF0
0030
0070
0070
01E0
3FC0
3F80
ENDCHAR
STARTCHAR equal
ENCODING 61
SWIDTH 619 0
DWIDTH 12 0
BBX 11 7 1 3
BITMAP
FFE0
0000
0000
0000
0000
FFE0
FFE0
ENDCHAR
STARTCHAR A
ENCODING 65
SWIDTH 784 0
DWIDTH 16 0
BBX 14 14 1 0
BITMAP
0300
0FC0
0FC0
0CC0
1CE0
18E0
3860
3870
3030
7038
6038
E018
E01C
C00C
ENDCHAR
STARTCHAR B
ENCODING 66
SWIDTH 719 0
DWIDTH 14 0
BBX 11 14 2 0
BITMAP
7E00
FFC0
FFE0
C060
C060
C060
FFC0
FFC0
C0E0
C060
C060
C0E0
FFE0
FF80
ENDCHAR
STARTCHAR C
ENCODING 67
SWIDTH 682 0
DWIDTH 14 0
BBX 11 14 1 0
BITMAP
03E0
1FE0
7FE0
7000
E000
E000
E000
E000
E000
E000
6000
7800
3FE0
1FE0
ENDCHAR
STARTCHAR D
ENCODING 68
SWIDTH 737 0
DWIDTH 15 0
BBX 12 14 2 0
BITMAP
7C00
FF80
FFC0
C0E0
C060
C060
C070
C070
C070
C060
C0E0
C1E0
FFC0
FF00
ENDCHAR
STARTCHAR E
ENCODING 69
SWIDTH 693 0
DWIDTH 14 0
BBX 11 14 1 0
BITMAP
07E0
7FE0
FFE0
E000
E000
E000
7FE0
3FE0
6000
E000
E000
F000
7FE0
3FE0
ENDCHAR
STARTCHAR F
ENCODING 70
SWIDTH 663 0
DWIDTH 13 0
BBX 10 14 2 0
BITMAP
0FC0
7FC0
FFC0
C000
C000
C000
FFC0
FFC0
FFC0
C000
C000
C000
C000
C000
ENDCHAR
STARTCHAR G
ENCODING 71
SWIDTH 729 0
DWIDTH 15 0
BBX 13 14 1 0
BITMAP
03F0
1FF0
7FF0
7000
E000
E000
E3E0
E3F0
E030
E038
6030
7870
3FF0
1FE0
ENDCHAR
STARTCHAR H
ENCODING 72
SWIDTH 745 0
DWIDTH 15 0
BBX 11 14 2 0
BITMAP
C060
C060
C060
C060
C060
C060
FFE0
FFE0
C060
C060
C060
C060
C060
C060
ENDCHAR
STARTCHAR I
ENCODING 73
SWIDTH 281 0
DWIDTH 6 0
BBX 2 14 2 0
BITMAP
C0
C0
C0
C0
C0
C0
C0
C0
C0
C0
C0
C0
C0
C0
ENDCHAR
STARTCHAR J
ENCODING 74
SWIDTH 583 0
DWIDTH 12 0
BBX 9 14 1 0
BITMAP
0180
0180
0180
0180
0180
0180
0180
0180
0180
0180
0180
0780
FF00
FE00
ENDCHAR
STARTCHAR K
ENCODING 75
SWIDTH 708 0
DWIDTH 14 0
BBX 12 14 2 0
BITMAP
C060
C0E0
C0C0
C1C0
C180
C380
FF00
FF00
C780
C180
C1C0
C0C0
C0E0
C070
ENDCHAR
STARTCHAR L
ENCODING 76
SWIDTH 622 0
DWIDTH 12 0
BBX 11 14 1 0
BITMAP
E000
E000
E000
E000
E000
E000
E000
E000
E000
6000
6000
7000
7FE0
1FE0
ENDCHAR
STARTCHAR M
ENCODING 77
SWIDTH 1102 0
DWIDTH 22 0
BBX 18 14 2 0
BITMAP
700380
FC0FC0
FC0FC0
CC0CC0
CE1CC0
CE1CC0
C618C0
C618C0
C718C0
C738C0
C330C0
C330C0
C3F0C0
C1E0C0
ENDCHAR
STARTCHAR N
ENCODING 78
SWIDTH 879 0
DWIDTH 18 0
BBX 14 14 2 0
BITMAP
700C
F80C
FC0C
CC0C
CE0C
C60C
C70C
C30C
C38C
C18C
C1CC
C1CC
C0FC
C078
ENDCHAR
STARTCHAR O
ENCODING 79
SWIDTH 816 0
DWIDTH 16 0
BBX 14 14 1 0
BITMAP
0300
1FF0
7FF8
7038
E01C
E00C
E00C
E00C
E00C
E00C
601C
7878
3FF0
1FE0
ENDCHAR
STARTCHAR P
ENCODING 80
SWIDTH 679 0
DWIDTH 14 0
BBX 11 14 2 0
BITMAP
FE00
FFC0
FFC0
00E0
00E0
00E0
01C0
FFC0
FF00
C000
C000
C000
C000
C000
ENDCHAR
STARTCHAR Q
ENCODING 81
SWIDTH 816 0
DWIDTH 16 0
BBX 14 16 1 -2
BITMAP
0300
1FF0
7FF8
7038
E01C
E00C
E00C
E00C
E00C
E19C
61DC
78F8
3FF0
1FE0
0070
0030
ENDCHAR
STARTCHAR R
ENCODING 82
SWIDTH 714 0
DWIDTH 14 0
BBX 11 14 2 0
BITMAP
FE00
FFC0
FFE0
0060
0060
0060
01E0
FFC0
FF80
C380
C1C0
C1C0
C0E0
C060
ENDCHAR
STARTCHAR S
ENCODING 83
SWIDTH 703 0
DWIDTH 14 0
BBX 12 14 1 0
BITMAP
0FE0
7FE0
FFE0
E000
C000
E000
7FC0
7FE0
0070
0030
0030
0070
FFE0
FFC0
ENDCHAR
STARTCHAR T
ENCODING 84
SWIDTH 571 0
DWIDTH 11 0
BBX 10 14 1 0
BITMAP
FFC0
FFC0
FFC0
0C00
0C00
0C00
0C00
0C00
0C00
0C00
0C00
0C00
0C00
0C00
ENDCHAR
STARTCHAR U
ENCODING 85
SWIDTH 732 0
DWIDTH 15 0
BBX 11 14 2 0
BITMAP
C060
C060
C060
C060
C060
C060
C060
C060
C060
C060
C060
E0E0
FFC0
7F80
ENDCHAR
STARTCHAR V
ENCODING 86
SWIDTH 784 0
DWIDTH 16 0
BBX 15 14 0 0
BITMAP
E006
600E
700E
300C
301C
3818
1838
1C38
1C30
0C70
0E60
06E0
07E0
03C0
ENDCHAR
STARTCHAR W
ENCODING 87
SWIDTH 1046 0
DWIDTH 21 0
BBX 19 14 1 0
BITMAP
C0E060
C1F060
C3F060
C3B8E0
E318E0
E318E0
E318E0
E718C0
671CC0
661CC0
660CC0
660CC0
7E0FC0
3C0780
ENDCHAR
STARTCHAR X
ENCODING 88
SWIDTH 781 0
DWIDTH 16 0
BBX 14 14 1 0
BITMAP
E01C
7038
3030
3870
1CE0
0FC0
0780
0780
0FC0
1CC0
38E0
3070
7038
E01C
ENDCHAR
STARTCHAR Y
ENCODING 89
SWIDTH 689 0
DWIDTH 14 0
BBX 14 14 0 0
BITMAP
E01C
7038
3070
3860
1CE0
0DC0
0780
0780
0300
0300
0300
0300
0300
0300
ENDCHAR
STARTCHAR Z
ENCODING 90
SWIDTH 743 0
DWIDTH 15 0
BBX 13 14 1 0
BITMAP
7FC0
7FF0
7FF8
0038
0038
00F0
03E0
1F80
7C00
F000
E000
E000
FFF0
7FF0
ENDCHAR
STARTCHAR a
ENCODING 97
SWIDTH 672 0
DWIDTH 13 0
BBX 11 11 1 0
BITMAP
7F00
7FC0
00E0
0060
0060
7FE0
E060
C060
E060
7FE0
3FE0
ENDCHAR
STARTCHAR b
ENCODING 98
SWIDTH 695 0
DWIDTH 14 0
BBX 11 15 2 0
BITMAP
C000
C000
C000
C000
FE00
FF80
C3C0
C0E0
C060
C060
C060
C0E0
C0C0
FFC0
7F80
ENDCHAR
STARTCHAR c
ENCODING 99
SWIDTH 602 0
DWIDTH 12 0
BBX 10 11 1 0
BITMAP
0FC0
7FC0
7800
E000
C000
C000
C000
C000
E000
7FC0
3FC0
ENDCHAR
STARTCHAR d
ENCODING 100
SWIDTH 695 0
DWIDTH 14 0
BBX 11 15 1 0
BITMAP
0060
0060
0060
0060
0FE0
7FE0
7860
E060
C060
C060
C060
C060
E060
7FE0
3FC0
ENDCHAR
STARTCHAR e
ENCODING 101
SWIDTH 652 0
DWIDTH 13 0
BBX 11 11 1 0
BITMAP
1F00
7FC0
70E0
C060
C060
FFC0
FF80
C000
E000
7FC0
3FC0
ENDCHAR
STARTCHAR f
ENCODING 102
SWIDTH 375 0
DWIDTH 8 0
BBX 7 15 0 0
BITMAP
1E
3E
30
30
FE
FE
30
30
30
30
30
30
30
30
30
ENDCHAR
STARTCHAR g
ENCODING 103
SWIDTH 692 0
DWIDTH 14 0
BBX 11 15 1 -4
BITMAP
0F00
7FC0
79E0
E060
C060
C060
C060
E060
7060
7FE0
0FE0
0060
0060
7FE0
7FC0
ENDCHAR
STARTCHAR h
ENCODING 104
SWIDTH 707 0
DWIDTH 14 0
BBX 11 15 2 0
BITMAP
C000
C000
C000
C000
FC00
FF80
C3C0
C0C0
C060
C060
C060
C060
C060
C060
C060
ENDCHAR
STARTCHAR i
ENCODING 105
SWIDTH 258 0
DWIDTH 5 0
BBX 2 15 2 0
BITMAP
C0
C0
C0
00
C0
C0
C0
C0
C0
C0
C0
C0
C0
C0
C0
ENDCHAR
STARTCHAR j
ENCODING 106
SWIDTH 270 0
DWIDTH 5 0
BBX 5 19 -1 -4
BITMAP
18
18
18
00
18
18
18
18
18
18
18
18
18
18
18
18
18
F8
F0
ENDCHAR
STARTCHAR k
ENCODING 107
SWIDTH 602 0
DWIDTH 12 0
BBX 9 15 2 0
BITMAP
C000
C000
C000
C000
C180
C380
C300
C700
C600
FC00
FE00
C700
C300
C380
C180
ENDCHAR
STARTCHAR l
ENCODING 108
SWIDTH 258 0
DWIDTH 5 0
BBX 2 15 2 0
BITMAP
C0
C0
C0
C0
C0
C0
C0
C0
C0
C0
C0
C0
C0
C0
C0
ENDCHAR
STARTCHAR m
ENCODING 109
SWIDTH 1032 0
DWIDTH 21 0
BBX 17 11 2 0
BITMAP
FFF800
FFFF00
C18F80
C18180
C18180
C18180
C18180
C18180
C18180
C18180
C18180
ENDCHAR
STARTCHAR n
ENCODING 110
SWIDTH 707 0
DWIDTH 14 0
BBX 11 11 2 0
BITMAP
FC00
FF80
C3C0
C0C0
C060
C060
C060
C060
C060
C060
C060
ENDCHAR
STARTCHAR o
ENCODING 111
SWIDTH 671 0
DWIDTH 13 0
BBX 11 11 1 0
BITMAP
0F00
7FC0
79E0
E060
C060
C060
C060
C060
E0E0
7FC0
3F80
ENDCHAR
STARTCHAR p
ENCODING 112
SWIDTH 693 0
DWIDTH 14 0
BBX 12 15 1 -4
BITMAP
0F00
3FC0
79E0
6070
E030
E030
E030
E070
E060
FFE0
FFC0
E000
E000
E000
E000
ENDCHAR
STARTCHAR q
ENCODING 113
SWIDTH 693 0
DWIDTH 14 0
BBX 11 15 1 -4
BITMAP
0F00
7FC0
79E0
E060
C060
C060
C060
C060
E060
7FE0
3FE0
0060
0060
0060
0060
ENDCHAR
STARTCHAR r
ENCODING 114
SWIDTH 463 0
DWIDTH 9 0
BBX 8 11 1 0
BITMAP
1F
7F
70
E0
E0
E0
E0
E0
E0
E0
E0
ENDCHAR
STARTCHAR s
ENCODING 115
SWIDTH 586 0
DWIDTH 12 0
BBX 10 11 1 0
BITMAP
1F80
7F80
E000
C000
C000
7F80
1FC0
00C0
01C0
FF80
FF00
ENDCHAR
STARTCHAR t
ENCODING 116
SWIDTH 375 0
DWIDTH 8 0
BBX 7 13 0 0
BITMAP
30
30
FE
FE
30
30
30
30
30
30
30
3E
1E
ENDCHAR
STARTCHAR u
ENCODING 117
SWIDTH 702 0
DWIDTH 14 0
BBX 12 11 1 0
BITMAP
E070
E070
E070
E070
E070
E070
E070
E070
7060
7FE0
1F80
ENDCHAR
STARTCHAR v
ENCODING 118
SWIDTH 677 0
DWIDTH 14 0
BBX 13 11 0 0
BITMAP
E018
6038
6030
3030
3060
3860
18E0
1CC0
0DC0
0F80
0780
ENDCHAR
STARTCHAR w
ENCODING 119
SWIDTH 977 0
DWIDTH 20 0
BBX 18 11 1 0
BITMAP
C1C0C0
C3E1C0
C371C0
C331C0
C73180
C63180
E63980
661980
6E1980
7C1F80
7C0F00
ENDCHAR
STARTCHAR x
ENCODING 120
SWIDTH 681 0
DWIDTH 14 0
BBX 12 11 1 0
BITMAP
C070
6060
30C0
1980
0F00
0600
0F00
1B80
31C0
60E0
C070
ENDCHAR
STARTCHAR y
ENCODING 121
SWIDTH 647 0
DWIDTH 13 0
BBX 13 15 0 -4
BITMAP
E038
6030
6070
3060
3060
38C0
18C0
19C0
0D80
0F80
0700
0300
0600
0600
0E00
ENDCHAR
STARTCHAR z
ENCODING 122
SWIDTH 624 0
DWIDTH 12 0
BBX 10 11 1 0
BITMAP
FF80
FFC0
00C0
00C0
03C0
1F00
7C00
E000
C000
FFC0
7FC0
ENDCHAR
STARTCHAR degree
ENCODING 176
SWIDTH 389 0
DWIDTH 8 0
BBX 6 7 1 7
BITMAP
78
FC
84
84
84
FC
78
ENDCHAR
ENDFONT
